<svg xmlns="http://www.w3.org/2000/svg" xmlns:xlink="http://www.w3.org/1999/xlink" width="512" height="512" zoomAndPan="magnify" viewBox="0 0 375 374.999991" preserveAspectRatio="xMidYMid meet" version="1.0">
    <defs>
        <clipPath id="3f782c848e">
            <path d="M 48 317 L 327 317 L 327 368.8125 L 48 368.8125 Z M 48 317 " clip-rule="nonzero" />
        </clipPath>
        <clipPath id="04bcb0b412">
            <path d="M 175 6.5625 L 200 6.5625 L 200 75 L 175 75 Z M 175 6.5625 " clip-rule="nonzero" />
        </clipPath>
    </defs>
    <g clip-path="url(#3f782c848e)">
        <path d="M 322.28125 368.8125 L 52.773438 368.8125 C 50.347656 368.8125 48.34375 366.808594 48.34375 364.378906 L 48.34375 343.109375 C 48.34375 328.96875 59.890625 317.460938 74.019531 317.460938 L 300.980469 317.460938 C 315.109375 317.460938 326.65625 328.96875 326.65625 343.109375 L 326.65625 364.378906 C 326.65625 366.808594 324.652344 368.8125 322.28125 368.8125 Z M 322.28125 368.8125 "  />
    </g>
    <path d="M 212.886719 310.125 L 212.886719 227.691406 C 212.886719 225.210938 210.882812 223.257812 208.457031 223.257812 L 166.492188 223.257812 C 164.066406 223.257812 162.113281 225.261719 162.113281 227.691406 L 162.113281 310.125 L 82.347656 310.125 L 101.75 142.089844 C 103.753906 124.832031 116.511719 112.273438 132.0625 112.273438 L 242.9375 112.273438 C 258.488281 112.273438 271.195312 124.832031 273.199219 142.089844 L 292.652344 310.125 Z M 204.082031 310.125 L 204.082031 232.070312 L 170.917969 232.070312 L 170.917969 310.125 Z M 204.082031 310.125 "  />
    <g clip-path="url(#04bcb0b412)">
        <path d="M 187.527344 74.800781 C 180.832031 74.800781 175.347656 69.363281 175.347656 62.664062 L 175.347656 18.699219 C 175.347656 12 180.832031 6.5625 187.527344 6.5625 C 194.167969 6.5625 199.652344 12 199.652344 18.699219 L 199.652344 62.714844 C 199.652344 69.363281 194.167969 74.800781 187.527344 74.800781 Z M 187.527344 74.800781 "  />
    </g>
    <path d="M 121.890625 92.429688 C 117.566406 92.429688 113.558594 90.160156 111.34375 86.359375 L 89.359375 48.253906 C 83.984375 38.914062 92.683594 27.671875 103.015625 30.46875 C 106.125 31.3125 108.761719 33.320312 110.394531 36.117188 L 132.378906 74.273438 C 137.019531 82.296875 131.167969 92.429688 121.890625 92.429688 Z M 121.890625 92.429688 "  />
    <path d="M 73.753906 140.507812 C 71.699219 140.507812 69.644531 139.980469 67.746094 138.921875 L 29.679688 116.914062 C 23.882812 113.539062 21.878906 106.097656 25.199219 100.34375 C 28.519531 94.539062 36.007812 92.535156 41.753906 95.859375 L 79.871094 117.867188 C 85.617188 121.242188 87.621094 128.683594 84.300781 134.4375 C 82.085938 138.34375 77.972656 140.507812 73.753906 140.507812 Z M 73.753906 140.507812 "  />
    <path d="M 56.199219 206.265625 L 12.230469 206.265625 C 5.585938 206.265625 0.105469 200.777344 0.105469 194.074219 C 0.105469 187.421875 5.585938 181.933594 12.230469 181.933594 L 56.199219 181.933594 C 62.894531 181.933594 68.324219 187.421875 68.324219 194.074219 C 68.324219 200.777344 62.894531 206.265625 56.199219 206.265625 Z M 56.199219 206.265625 "  />
    <path d="M 253.109375 92.429688 C 243.832031 92.429688 237.980469 82.347656 242.621094 74.273438 L 264.605469 36.117188 C 267.976562 30.3125 275.410156 28.304688 281.160156 31.683594 C 286.957031 35.007812 288.960938 42.449219 285.640625 48.253906 L 263.65625 86.359375 C 261.386719 90.265625 257.328125 92.429688 253.109375 92.429688 Z M 253.109375 92.429688 "  />
    <path d="M 301.246094 140.558594 C 293.230469 140.558594 287.378906 133.011719 289.488281 125.253906 C 290.332031 122.140625 292.335938 119.5 295.128906 117.917969 L 333.195312 95.910156 C 342.523438 90.527344 353.753906 99.128906 350.960938 109.578125 C 350.117188 112.695312 348.113281 115.332031 345.320312 116.914062 L 307.253906 138.921875 C 305.410156 139.980469 303.355469 140.558594 301.246094 140.558594 Z M 301.246094 140.558594 "  />
    <path d="M 362.769531 206.265625 L 318.800781 206.265625 C 312.105469 206.265625 306.675781 200.777344 306.675781 194.074219 C 306.675781 187.421875 312.105469 181.933594 318.800781 181.933594 L 362.769531 181.933594 C 369.464844 181.933594 374.894531 187.421875 374.894531 194.074219 C 374.84375 200.777344 369.464844 206.265625 362.769531 206.265625 Z M 362.769531 206.265625 "  />
</svg>